[quote=description from other torrent on other tracker]This movie chronicles the life and times of R. Crumb. Robert Crumb is the cartoonist/artist who drew Keep On Truckin\', Fritz the Cat, and played a major pioneering role in the genesis of underground comix. Through interviews with his mother, two brothers, wife, and ex-girlfriends, as well as selections from his vast quantity of graphic art, we are treated to a darkly comic ride through one man\'s subconscious mind. As stream-of-consciousness images incessantly flow forth from the tip of his pen, biting social satire is revealed, often along with a disturbing and haunting vision of Crumb\'s own betes noires and inadequacies. As his acid-trip induced images flicker across our own retinas, we gain a little insight into this complex and highly creative individual.[/quote]
This is an mkv mux of a version found onanother tracker, DVDrip, ripper unknown, perhaps the uploader fjckls. It is x264 SD @#1500 kbps with AAC @160 kbps with chapters. I muxed it with two commentary tracks :
* 2010 - Commentary track with Terry Zwigoff
* 2006 - Commentary track with Roger Ebert and Terry Zwigoff
that were upped onby charulata from another tracker.
I also added 4 language subtitles (English, Spanish, French (default) and Portuguese) after making sure they were in synch (resynched french).

[b]Detailed specs[/b]
General
Complete name                    : Crumb.mkv
Format                           : Matroska
File size                        : 1.61 GiB
Duration                         : 2h 0mn
Overall bit rate                 : 1 911 Kbps
Encoded date                     : UTC 2010-08-15 23:10:03
Writing application              : mkvmerge v3.3.0 (\'Language\') built on Apr  9 2010 02:14:50
Writing library                  : libebml v0.7.8 + libmatroska v0.8.1

Video
ID                               : 1
Format                           : AVC
Format/Info                      : Advanced Video Codec
Format profile                   : Main@L5.1
Format settings, CABAC           : Yes
Format settings, ReFrames        : 2 frames
Muxing mode                      : Container profile=Unknown@5.1
Codec ID                         : V_MPEG4/ISO/AVC
Duration                         : 2h 0mn
Nominal bit rate                 : 1 500 Kbps
Width                            : 712 pixels
Height                           : 480 pixels
Display aspect ratio             : 4:3
Frame rate                       : 23.976 fps
Color space                      : YUV
Chroma subsampling               : 4:2:0
Bit depth                        : 8 bits
Scan type                        : Progressive
Bits/(Pixel*Frame)               : 0.183
Title                            : Crumb Advanced Video Codec SD @ 1500 kbps
Writing library                  : x264 core 58 svn-736M
Encoding settings                : cabac=1 / ref=2 / deblock=1:0:0 / analyse=0x1:0x111 / me=umh / subme=5 / brdo=0 / mixed_ref=0 / me_range=16 / chroma_me=1 / trellis=0 / 8x8dct=0 / cqm=0 / deadzone=21,11 / chroma_qp_offset=0 / threads=3 / nr=0 / decimate=1 / mbaff=0 / bframes=2 / b_pyramid=0 / b_adapt=1 / b_bias=0 / direct=1 / wpredb=0 / bime=0 / keyint=240 / keyint_min=24 / scenecut=40(pre) / rc=2pass / bitrate=1500 / ratetol=1.0 / rceq=\'blurCplx^(1-qComp)\' / qcomp=0.60 / qpmin=10 / qpmax=51 / qpstep=4 / cplxblur=20.0 / qblur=0.5 / ip_ratio=1.40 / pb_ratio=1.30
Language                         : English

Audio #1
ID                               : 2
Format                           : AAC
Format/Info                      : Advanced Audio Codec
Format version                   : Version 4
Format profile                   : LC
Format settings, SBR             : No
Codec ID                         : A_AAC
Duration                         : 2h 0mn
Channel(s)                       : 2 channels
Channel positions                : Front: L R
Sampling rate                    : 48.0 KHz
Title                            : aac stereo @160 kbps [VBR]
Language                         : English

Audio #2
ID                               : 3
Format                           : MPEG Audio
Format version                   : Version 1
Format profile                   : Layer 3
Mode                             : Joint stereo
Mode extension                   : MS Stereo
Codec ID                         : A_MPEG/L3
Codec ID/Hint                    : MP3
Duration                         : 2h 0mn
Bit rate mode                    : Constant
Bit rate                         : 128 Kbps
Channel(s)                       : 2 channels
Sampling rate                    : 48.0 KHz
Stream size                      : 110 MiB (7%)
Title                            : 2006 - Commentary track with Roger Ebert and Terry Zwigoff (mp3 @128kpbs)
Writing library                  : LAME3.90.3
Language                         : English

Audio #3
ID                               : 4
Format                           : MPEG Audio
Format version                   : Version 1
Format profile                   : Layer 3
Mode                             : Joint stereo
Mode extension                   : MS Stereo
Codec ID                         : A_MPEG/L3
Codec ID/Hint                    : MP3
Duration                         : 2h 0mn
Bit rate mode                    : Constant
Bit rate                         : 128 Kbps
Channel(s)                       : 2 channels
Sampling rate                    : 48.0 KHz
Stream size                      : 110 MiB (7%)
Title                            : 2010 - Commentary track with Terry Zwigoff (mp3 @128kpbs)
Language                         : English

Text #1
ID                               : 5
Format                           : UTF-8
Codec ID                         : S_TEXT/UTF8
Codec ID/Info                    : UTF-8 Plain Text
Language                         : English

Text #2
ID                               : 6
Format                           : UTF-8
Codec ID                         : S_TEXT/UTF8
Codec ID/Info                    : UTF-8 Plain Text
Language                         : Spanish

Text #3
ID                               : 7
Format                           : UTF-8
Codec ID                         : S_TEXT/UTF8
Codec ID/Info                    : UTF-8 Plain Text
Language                         : French

Text #4
ID                               : 8
Format                           : UTF-8
Codec ID                         : S_TEXT/UTF8
Codec ID/Info                    : UTF-8 Plain Text
Language                         : Portuguese

Menu
00:00:00.000                     : en:Chapter  1
00:05:23.239                     : en:Chapter  2
00:08:46.817                     : en:Chapter  3
00:12:50.811                     : en:Chapter  4
00:16:18.769                     : en:Chapter  5
00:31:24.841                     : en:Chapter  6
00:35:38.427                     : en:Chapter  7
00:38:07.743                     : en:Chapter  8
00:38:49.952                     : en:Chapter  9
00:41:28.527                     : en:Chapter 10
00:43:10.296                     : en:Chapter 11
00:49:26.380                     : en:Chapter 12
00:50:23.103                     : en:Chapter 13
00:54:50.036                     : en:Chapter 14
00:59:08.253                     : en:Chapter 15
01:00:09.897                     : en:Chapter 16
01:06:16.847                     : en:Chapter 17
01:08:30.356                     : en:Chapter 18
01:11:06.845                     : en:Chapter 19
01:19:40.066                     : en:Chapter 20
01:32:55.361                     : en:Chapter 21
01:35:37.356                     : en:Chapter 22
01:43:55.854                     : en:Chapter 23
01:45:28.947                     : en:Chapter 24
01:48:01.558                     : en:Chapter 25
01:51:27.597                     : en:Chapter 26
01:52:18.982                     : en:Chapter 27
01:56:46.874                     : en:Chapter 28
[b]screens[/b]
[img]http://img718.imageshack.us/img718/5459/vlcsnap2010081610h00m27.png[/img]
[img]http://img683.imageshack.us/img683/6385/vlcsnap2010081609h52m57.png[/img]
[img]http://img832.imageshack.us/img832/1567/vlcsnap2010081609h54m06.png[/img]
[img]http://img693.imageshack.us/img693/8909/vlcsnap2010081609h55m14.png[/img]
[img]http://img517.imageshack.us/img517/6057/vlcsnap2010081609h55m32.png[/img]